<svg width="283" height="232" viewBox="0 0 283 232" fill="none" xmlns="http://www.w3.org/2000/svg">
<path d="M63.8125 98.748C63.8125 97.6435 62.9171 96.748 61.8125 96.748H2.00049C0.895921 96.748 0.000488281 97.6435 0.000488281 98.748V232H63.8125V98.748Z" fill="#D8C7C4"/>
<ellipse cx="31.906" cy="4.05132" rx="31.906" ry="4.05132" transform="matrix(-1 0 0 1 63.8125 93.6317)" fill="#D7BEB9"/>
<rect width="2.05845" height="9.34921" transform="matrix(-1 0 0 1 32.9355 88.6454)" fill="#3B1920"/>
<path d="M183.046 20.514C183.046 19.4095 182.15 18.514 181.046 18.514H84.8124C83.7079 18.514 82.8124 19.4095 82.8124 20.514V232H183.046V20.514Z" fill="#D8C7C4"/>
<ellipse cx="50.1167" cy="6.39474" rx="50.1167" ry="6.39474" transform="matrix(-1 0 0 1 183.046 13.5951)" fill="#D7BEB9"/>
<rect width="3.23334" height="14.7571" transform="matrix(-1 0 0 1 134.546 5.72449)" fill="#3B1920"/>
<path d="M282.046 63.609C282.046 62.5044 281.15 61.609 280.046 61.609H204.046C202.941 61.609 202.046 62.5044 202.046 63.609V232H282.046V63.609Z" fill="#D8C7C4"/>
<ellipse cx="40" cy="5.10387" rx="40" ry="5.10387" transform="matrix(-1 0 0 1 282.046 57.683)" fill="#D7BEB9"/>
<rect width="2.58065" height="11.7782" transform="matrix(-1 0 0 1 243.336 51.4012)" fill="#3B1920"/>
</svg>
