<svg width="283" height="232" viewBox="0 0 283 232" fill="none" xmlns="http://www.w3.org/2000/svg">
<path d="M63.8125 104.871C63.8125 103.766 62.9171 102.871 61.8125 102.871H2.00049C0.895921 102.871 0.000488281 103.766 0.000488281 104.871V232H63.8125V104.871Z" fill="#D8C7C4"/>
<ellipse cx="31.906" cy="3.86793" rx="31.906" ry="3.86793" transform="matrix(-1 0 0 1 63.8125 99.8953)" fill="#D7BEB9"/>
<rect width="2.05845" height="8.92599" transform="matrix(-1 0 0 1 32.9355 95.1346)" fill="#3B1920"/>
<path d="M183.046 30.1781C183.046 29.0735 182.15 28.1781 181.046 28.1781H84.8124C83.7079 28.1781 82.8124 29.0735 82.8124 30.1781V232H183.046V30.1781Z" fill="#D8C7C4"/>
<ellipse cx="50.1167" cy="6.10526" rx="50.1167" ry="6.10526" transform="matrix(-1 0 0 1 183.046 23.4817)" fill="#D7BEB9"/>
<rect width="3.23334" height="14.0891" transform="matrix(-1 0 0 1 134.546 15.9674)" fill="#3B1920"/>
<path d="M282.046 71.3223C282.046 70.2177 281.15 69.3223 280.046 69.3223H204.046C202.941 69.3223 202.046 70.2177 202.046 71.3223V232H282.046V71.3223Z" fill="#D8C7C4"/>
<ellipse cx="40" cy="4.87283" rx="40" ry="4.87283" transform="matrix(-1 0 0 1 282.046 65.574)" fill="#D7BEB9"/>
<rect width="2.58065" height="11.245" transform="matrix(-1 0 0 1 243.336 59.5767)" fill="#3B1920"/>
</svg>
