<svg width="283" height="232" viewBox="0 0 283 232" fill="none" xmlns="http://www.w3.org/2000/svg">
<path d="M63.8125 104.871C63.8125 103.766 62.9171 102.871 61.8125 102.871H2.00049C0.895921 102.871 0.000488281 103.766 0.000488281 104.871V232H63.8125V104.871Z" fill="#D8C7C4"/>
<ellipse cx="31.906" cy="3.86793" rx="31.906" ry="3.86793" transform="matrix(-1 0 0 1 63.8125 99.8953)" fill="#D7BEB9"/>
<rect width="2.05845" height="8.92599" transform="matrix(-1 0 0 1 32.9355 95.1346)" fill="#3B1920"/>
<path d="M26.7605 90.4973C26.7605 93.3872 29.3525 95.7299 32.5499 95.7299C35.7473 95.7299 37.0527 93.3872 37.0527 90.4973C33.0738 85.0187 33.717 87.635 31.7872 85.0187C28.5709 87.2612 30.5007 86.5137 26.7605 90.4973Z" fill="url(#paint0_radial_197_20)"/>
<path d="M183.046 30.1781C183.046 29.0735 182.15 28.1781 181.046 28.1781H84.8124C83.7079 28.1781 82.8124 29.0735 82.8124 30.1781V232H183.046V30.1781Z" fill="#D8C7C4"/>
<ellipse cx="50.1167" cy="6.10526" rx="50.1167" ry="6.10526" transform="matrix(-1 0 0 1 183.046 23.4817)" fill="#D7BEB9"/>
<rect width="3.23334" height="14.0891" transform="matrix(-1 0 0 1 134.546 15.9674)" fill="#3B1920"/>
<path d="M124.846 8.64747C124.846 13.2089 128.917 16.9068 133.94 16.9068C138.962 16.9068 141.013 13.2089 141.013 8.64747C134.763 -0.00012207 135.773 4.12952 132.742 -0.00012207C127.69 3.53957 130.721 2.35967 124.846 8.64747Z" fill="url(#paint1_radial_197_20)"/>
<path d="M282.046 71.3223C282.046 70.2177 281.15 69.3223 280.046 69.3223H204.046C202.941 69.3223 202.046 70.2177 202.046 71.3223V232H282.046V71.3223Z" fill="#D8C7C4"/>
<ellipse cx="40" cy="4.87283" rx="40" ry="4.87283" transform="matrix(-1 0 0 1 282.046 65.574)" fill="#D7BEB9"/>
<rect width="2.58065" height="11.245" transform="matrix(-1 0 0 1 243.336 59.5767)" fill="#3B1920"/>
<path d="M235.594 53.7342C235.594 57.3749 238.843 60.3263 242.852 60.3263C246.86 60.3263 248.497 57.3749 248.497 53.7342C243.509 46.8323 244.315 50.1283 241.896 46.8323C237.864 49.6574 240.283 48.7157 235.594 53.7342Z" fill="url(#paint2_radial_197_20)"/>
<defs>
<radialGradient id="paint0_radial_197_20" cx="0" cy="0" r="1" gradientUnits="userSpaceOnUse" gradientTransform="translate(31.9066 90.3743) rotate(-90) scale(5.3556 5.14613)">
<stop stop-color="#E9BA99"/>
<stop offset="1" stop-color="#B25561"/>
</radialGradient>
<radialGradient id="paint1_radial_197_20" cx="0" cy="0" r="1" gradientUnits="userSpaceOnUse" gradientTransform="translate(132.929 8.45332) rotate(-90) scale(8.45344 8.08334)">
<stop stop-color="#E9BA99"/>
<stop offset="1" stop-color="#B25561"/>
</radialGradient>
<radialGradient id="paint2_radial_197_20" cx="0" cy="0" r="1" gradientUnits="userSpaceOnUse" gradientTransform="translate(242.045 53.5793) rotate(-90) scale(6.747 6.45161)">
<stop stop-color="#E9BA99"/>
<stop offset="1" stop-color="#B25561"/>
</radialGradient>
</defs>
</svg>
